<?xml version="1.0" encoding="UTF-8"?>
<svg id="Layer_1" data-name="Layer 1" xmlns="http://www.w3.org/2000/svg" viewBox="0 0 934.34 193.78">
  <defs>
    <style>
      .cls-1, .cls-2, .cls-3, .cls-4, .cls-5, .cls-6, .cls-7, .cls-8, .cls-9 {
        stroke: #000;
        stroke-miterlimit: 10;
      }

      .cls-1, .cls-10, .cls-3, .cls-8, .cls-9 {
        fill: none;
      }

      .cls-2 {
        fill: #00693c;
      }

      .cls-11, .cls-12, .cls-4 {
        fill: #e9b44c;
      }

      .cls-12, .cls-13, .cls-8 {
        isolation: isolate;
      }

      .cls-12, .cls-8 {
        font-family: Bauhaus93, 'Bauhaus 93';
        font-size: 101.71px;
      }

      .cls-3 {
        stroke-width: 13px;
      }

      .cls-4, .cls-9 {
        stroke-width: 10px;
      }

      .cls-5 {
        fill: #7fd1b9;
      }

      .cls-6 {
        fill: #826251;
      }

      .cls-7 {
        fill: #91c7b1;
      }

      .cls-8 {
        stroke-width: 4px;
      }
    </style>
  </defs>
  <path class="cls-11" d="M194.34,46.67c-19.58-7.97-39.88,1.39-59.55,3.95-.55.07-.51,22.77-.48,19.77-.17,15.91-.2,31.82-.2,47.73s0,31.82.2,47.73c.02,1.94.44,19.77.48,19.77,4.44-.58,8.92-1.5,13.41-2.49,1.65-1.09,3.29-2.2,4.96-3.27,3.24-2.08,6.73-3.73,9.94-5.83,2.16-1.42,4.09-3.22,6.39-4.3,1.89-1.76,3.91-3.38,5.87-4.9h0c3.7-2.85,7.28-5.29,11.49-7.38,2.88-1.43,5.47-3.23,8.04-5.08.1-12.73.14-25.46.14-38.2,0-15.91,0-31.82-.2-47.73-.03-2.37.94-19.19-.48-19.77Z"/>
  <path class="cls-11" d="M192.91,93.17h0l-.11-8.6c.03-2.51-.06-5.01-.28-7.51-7.71,7.54-18.88,10.85-27.87,16.64-9.93,6.39-18.98,14.01-28,21.6-1.11.93-.4,17.25-.39,16.11-.14,12.96-.17,25.93-.16,38.89,0,6.66.02,13.32.04,19.98.72.08,1.34.29,1.88.6,1.27-2.09,3.56-3.56,5.69-4.85,3.21-1.96,6.3-4.13,9.47-6.17,3.24-2.08,6.73-3.73,9.94-5.83,2.16-1.42,4.09-3.22,6.39-4.3,1.89-1.75,3.9-3.37,5.85-4.89,3.7-2.86,7.28-5.3,11.49-7.39,2.19-1.09,4.2-2.39,6.17-3.75.04-7.21.06-14.43.06-21.64,0-12.96,0-25.93-.16-38.89Z"/>
  <path class="cls-11" d="M195.61,34.81c0-7.66,0-15.32-.1-22.98,0-.42-.09-1.31-.19-2.38-.24.02-.47.04-.71.02-2.03.49-4.04.77-6.18.1-.21-.06-.4-.15-.59-.23-7.69,6.8-16.07,12.76-25.1,17.71-10.11,5.54-24.76,8.33-31.28,18.59-.82,1.29-.23,9.1-.23,9.52-.08,7.66-.1,15.32-.1,22.98s0,15.32.1,22.98c.02,1.95,1.15,8.07.23,9.52,6.53-10.26,21.17-13.06,31.28-18.59,12.03-6.58,22.93-14.98,32.54-24.74.72-.73.23-9.93.23-9.52.08-7.66.1-15.32.1-22.98h0Z"/>
  <path class="cls-11" d="M141.12,187.7c.14-19.02.05-51.66-.3-51.66h-8.33c-.36,0-.46,37.35-.27,55.42.79-.74,1.89-1.22,3.29-1.22.98,0,1.81.24,2.49.64.76-1.25,1.88-2.28,3.12-3.18Z"/>
  <path class="cls-11" d="M195.94,146.29v-.02h-.01c.08-7.66.1-15.32.1-22.98s0-15.32-.1-22.98c0-1.3-.9-8.99-.23-9.52-22.71,17.84-46.38,36.05-75.13,42.54-1.41.32-.33,29.82-.32,32.5,0,7.66,0,15.32.1,22.98,0,.46.09,2.72.15,4.92,0,0,.02,0,.03,0,.25.03.51.04.76.05,3.29-1.04,6.77-1.51,10.24-1.44.78-1.22,2.1-2.09,3.99-2.09.98,0,1.8.24,2.48.63,1.27-2.09,3.57-3.57,5.69-4.86,3.21-1.96,6.3-4.13,9.47-6.17,3.24-2.08,6.73-3.73,9.94-5.83,2.21-1.44,4.16-3.3,6.53-4.37,1.86-1.71,3.81-3.31,5.73-4.8,3.7-2.86,7.28-5.3,11.49-7.39,3.33-1.65,6.26-3.79,9.22-5.93,0-2.73-.12-5.68-.13-5.25Z"/>
  <line class="cls-3" x1="4.76" y1="60.14" x2="69.18" y2="16.22"/>
  <path class="cls-11" d="M198.26,144.82l-64.42,43.92,64.42-43.92Z"/>
  <path class="cls-1" d="M133.7,60.09l64.42-43.92-64.42,43.92Z"/>
  <line class="cls-1" x1="198.02" y1="16.22" x2="133.6" y2="60.14"/>
  <line class="cls-10" x1="133.6" y1="188.98" x2="198.02" y2="145.06"/>
  <line class="cls-1" x1="69.18" y1="16.22" x2="69.18" y2="60.14"/>
  <line class="cls-1" x1="69.18" y1="16.22" x2="198.02" y2="16.22"/>
  <path d="M144.39,118.87c1.93,0,1.93-3,0-3s-1.93,3,0,3h0Z"/>
  <path d="M165.81,106.96c1.93,0,1.93-3,0-3s-1.93,3,0,3h0Z"/>
  <path d="M165.81,105.77c1.93,0,1.93-3,0-3s-1.93,3,0,3h0Z"/>
  <path d="M143.2,67.68c1.93,0,1.93-3,0-3s-1.93,3,0,3h0Z"/>
  <path class="cls-11" d="M175.35,164.84c3.7-2.86,7.28-5.3,11.49-7.39.28-.14.55-.29.82-.43.56-31.22.44-125.01-.41-125.01h-51.18c-.99,0-1.03,135,0,135h36.55c.91-.75,1.83-1.47,2.74-2.17h-.01Z"/>
  <g>
    <rect class="cls-4" x="5.5" y="60.4" width="127.84" height="127.84"/>
    <path class="cls-4" d="M132.84,60.9v126.84H6V60.9h126.84M133.84,59.9H5v128.84h128.84V59.9h0Z"/>
  </g>
  <path class="cls-11" d="M195.57,33.84c-.31,0-.63.02-.94.02,2.07-2.9.78-8.11-3.87-8.11-5.01,0-6.12,6.06-3.33,8.75-4.18.68-8.25,1.89-12.23,3.65-.46.2-.24,10.71-.23,9.52-.08,7.66-.1,15.32-.1,22.98s0,15.32.1,22.98c0,1.05.59,9.36.23,9.52,6.51-2.87,13.25-4.3,20.37-4.31.5,0,.47-65,0-65h0Z"/>
  <path class="cls-11" d="M195.57,55.11c-3.37,2.42-6.93,4-10.71,4.77-.28.05-.25,14.63-.23,12.72-.08,10.24-.1,20.47-.1,30.71s0,20.47.1,30.71c0,1.26.24,12.72.23,12.72,3.79-.78,7.34-2.35,10.71-4.77.51-.36.24-14.17.23-12.72.08-10.24.1-20.47.1-30.71s0-20.47-.1-30.71l-.07-6.79c.02-1.98-.03-3.96-.16-5.93h0Z"/>
  <path class="cls-11" d="M195.83,151.69c.2-17.79.12-56.11-.26-56.11h-2.38c-.38,0-.47,41.46-.24,58.15.97-.67,1.92-1.36,2.88-2.05h0Z"/>
  <line class="cls-3" x1="4.76" y1="60.14" x2="133.6" y2="60.14"/>
  <line class="cls-3" x1="69.18" y1="16.22" x2="69.18" y2="60.14"/>
  <line class="cls-3" x1="198.02" y1="16.22" x2="69.18" y2="16.22"/>
  <line class="cls-3" x1="133.6" y1="60.14" x2="193.14" y2="19.64"/>
  <line class="cls-9" x1="133.6" y1="188.98" x2="198.02" y2="145.06"/>
  <line class="cls-9" x1="195.57" y1="17.81" x2="195.57" y2="146.65"/>
  <polygon class="cls-6" points="117.04 37.17 100.57 47.11 83.63 37.99 83.16 18.93 99.63 8.99 116.56 18.11 117.04 37.17"/>
  <g class="cls-13">
    <g class="cls-13">
      <g class="cls-13">
        <text class="cls-12" transform="translate(246.26 123.05) scale(1.09 1)"><tspan x="0" y="0">Weekly Waste</tspan></text>
        <text class="cls-8" transform="translate(246.26 123.05) scale(1.09 1)"><tspan x="0" y="0">Weekly Waste</tspan></text>
      </g>
    </g>
    <g class="cls-13">
      <g class="cls-13">
        <text class="cls-12" transform="translate(246.26 123.05) scale(1.09 1)"><tspan x="0" y="0">Weekly Waste</tspan></text>
        <text class="cls-8" transform="translate(246.26 123.05) scale(1.09 1)"><tspan x="0" y="0">Weekly Waste</tspan></text>
      </g>
    </g>
  </g>
  <polygon class="cls-7" points="122.67 52.65 114.44 62.59 105.97 53.48 105.73 34.42 113.97 24.47 122.43 33.59 122.67 52.65"/>
  <polygon class="cls-5" points="53.07 50.4 40.16 50.47 41.71 38.12 56.18 25.72 69.1 25.64 67.54 37.99 53.07 50.4"/>
  <polygon class="cls-2" points="40.74 24.57 41.94 11.72 54.07 14.47 65 30.09 63.81 42.95 51.67 40.19 40.74 24.57"/>
  <polygon class="cls-6" points="118.35 19.17 109.8 9.51 120.11 2.55 138.98 5.26 147.54 14.92 137.22 21.89 118.35 19.17"/>
  <polygon class="cls-2" points="150.28 49.72 133.81 59.66 116.87 50.54 116.4 31.48 132.87 21.54 149.8 30.66 150.28 49.72"/>
  <polygon class="cls-5" points="178.59 28.76 162.12 38.7 145.18 29.58 144.71 10.52 161.18 .58 178.11 9.7 178.59 28.76"/>
  <polygon class="cls-7" points="69.81 30.66 53.34 40.6 36.4 31.48 35.93 12.42 52.4 2.48 69.33 11.6 69.81 30.66"/>
  <polygon class="cls-6" points="113.36 43.38 102.31 59.13 83.13 57.63 75 40.39 86.05 24.64 105.22 26.14 113.36 43.38"/>
  <polygon class="cls-5" points="97.38 28.76 80.91 38.7 63.97 29.58 63.5 10.52 79.97 .58 96.9 9.7 97.38 28.76"/>
  <polygon class="cls-5" points="52.87 38.98 47.07 57.32 28.33 61.67 15.39 47.67 21.19 29.32 39.92 24.99 52.87 38.98"/>
  <polygon class="cls-5" points="126.63 38.44 110.16 48.38 93.22 39.26 92.75 20.2 109.22 10.26 126.15 19.38 126.63 38.44"/>
  <polygon class="cls-7" points="149.5 41.76 136.69 43.33 136.8 30.89 149.73 16.88 162.55 15.31 162.43 27.76 149.5 41.76"/>
  <polygon class="cls-5" points="82.03 45.59 85.81 57.93 73.55 60 57.49 49.72 53.7 37.38 65.98 35.31 82.03 45.59"/>
  <polygon class="cls-2" points="99.25 24.08 95.86 36.53 84.38 31.73 76.3 14.47 79.69 2.01 91.17 6.82 99.25 24.08"/>
  <polygon class="cls-6" points="28.53 30.38 16.34 26.13 21.94 15.01 39.72 8.16 51.92 12.42 46.31 23.53 28.53 30.38"/>
  <polygon class="cls-2" points="60.52 59.29 43.71 49.95 43.19 30.72 59.49 20.82 76.3 30.16 76.82 49.39 60.52 59.29"/>
</svg>