<?xml version="1.0" encoding="UTF-8"?>
<svg id="Layer_1" xmlns="http://www.w3.org/2000/svg" version="1.1" viewBox="0 0 936 319.27">
  <!-- Generator: Adobe Illustrator 29.6.0, SVG Export Plug-In . SVG Version: 2.1.1 Build 207)  -->
  <defs>
    <style>
      .st0, .st1, .st2, .st3, .st4, .st5, .st6 {
        stroke: #000;
        stroke-miterlimit: 10;
      }

      .st0, .st2 {
        fill: none;
      }

      .st1 {
        fill: #00693c;
      }

      .st7 {
        fill: #fff;
      }

      .st8, .st6 {
        fill: #e9b44c;
      }

      .st2 {
        stroke-width: 13px;
      }

      .st9, .st6 {
        isolation: isolate;
      }

      .st3 {
        fill: #7fd1b9;
      }

      .st4 {
        fill: #826251;
      }

      .st5 {
        fill: #91c7b1;
      }

      .st10 {
        fill: #fbb03b;
      }

      .st6 {
        font-family: Bauhaus93, 'Bauhaus 93';
        font-size: 101.71px;
        stroke-width: 5px;
      }
    </style>
  </defs>
  <line class="st2" x1="6.5" y1="60.83" x2="70.92" y2="16.91"/>
  <g>
    <rect class="st8" x="7.24" y="61.09" width="127.84" height="127.84"/>
    <path class="st8" d="M134.58,61.59v126.84H7.74V61.59h126.84M135.58,60.59H6.74v128.84h128.84V60.59h0Z"/>
  </g>
  <path class="st0" d="M200,145.51l-64.42,43.92,64.42-43.92Z"/>
  <path class="st0" d="M135.44,60.78l64.42-43.92-64.42,43.92Z"/>
  <line class="st0" x1="199.76" y1="16.91" x2="135.34" y2="60.83"/>
  <line class="st0" x1="135.34" y1="189.67" x2="199.76" y2="145.75"/>
  <line class="st0" x1="199.76" y1="16.91" x2="199.76" y2="145.75"/>
  <line class="st0" x1="70.92" y1="16.91" x2="70.92" y2="60.83"/>
  <line class="st0" x1="70.92" y1="16.91" x2="199.76" y2="16.91"/>
  <path d="M146.13,119.56c1.93,0,1.93-3,0-3s-1.93,3,0,3h0Z"/>
  <path d="M167.55,107.65c1.93,0,1.93-3,0-3s-1.93,3,0,3h0Z"/>
  <path d="M167.55,106.46c1.93,0,1.93-3,0-3s-1.93,3,0,3h0Z"/>
  <path d="M144.94,68.37c1.93,0,1.93-3,0-3s-1.93,3,0,3h0Z"/>
  <path class="st10" d="M188.98,32.7h-51.18c-.99,0-1.03,135,0,135h51.18c.99,0,1.03-135,0-135h0Z"/>
  <path class="st10" d="M196.07,47.37c-19.58-7.97-39.88,1.39-59.55,3.95-.55.07-.51,22.77-.48,19.77-.17,15.91-.2,31.82-.2,47.73s0,31.82.2,47.73c.02,1.94.44,19.77.48,19.77,19.66-2.55,39.96-11.92,59.55-3.95-.2-.08.51-22.77.48-19.77.17-15.91.2-31.82.2-47.73s0-31.82-.2-47.73c-.03-2.37.94-19.19-.48-19.77h0Z"/>
  <path class="st8" d="M138.38,225.99c9.02-7.59,18.07-15.21,28-21.6,8.98-5.78,20.16-9.1,27.87-16.64,1.19-1.17.4-16.91.39-16.11.14-12.96.17-25.93.16-38.89s0-25.93-.16-38.89l-.11-8.6c.03-2.51-.06-5.01-.28-7.51-7.71,7.54-18.88,10.85-27.87,16.64-9.93,6.39-18.98,14.01-28,21.6-1.11.93-.4,17.25-.39,16.11-.14,12.96-.17,25.93-.16,38.89s0,25.93.16,38.89l.11,8.6c-.03,2.51.06,5.01.28,7.51h0Z"/>
  <path class="st8" d="M197.02,3c-9.61,9.77-20.51,18.15-32.54,24.74-10.11,5.54-24.76,8.33-31.28,18.59-.82,1.29-.23,9.1-.23,9.52-.08,7.66-.1,15.32-.1,22.98s0,15.32.1,22.98c.02,1.95,1.15,8.07.23,9.52,6.53-10.26,21.17-13.06,31.28-18.59,12.03-6.58,22.93-14.98,32.54-24.74.72-.73.23-9.93.23-9.52.08-7.66.1-15.32.1-22.98s0-15.32-.1-22.98c-.02-1.5-1.03-8.71-.23-9.52h0Z"/>
  <path class="st10" d="M197.31,34.53c-7.11,0-13.86,1.43-20.37,4.31-.46.2-.24,10.71-.23,9.52-.08,7.66-.1,15.32-.1,22.98s0,15.32.1,22.98c0,1.05.59,9.36.23,9.52,6.51-2.87,13.25-4.3,20.37-4.31.5,0,.47-65,0-65h0Z"/>
  <path class="st10" d="M197.31,55.8c-3.37,1.81-6.93,2.99-10.71,3.57-.28.04-.25,10.95-.23,9.52-.08,7.66-.1,15.32-.1,22.98s0,15.32.1,22.98c0,.94.24,9.52.23,9.52,3.79-.58,7.34-1.76,10.71-3.57.51-.27.24-10.6.23-9.52.08-7.66.1-15.32.1-22.98s0-15.32-.1-22.98l-.07-5.08c.02-1.48-.03-2.96-.16-4.44h0Z"/>
  <path class="st8" d="M197.43,91.48c-22.71,17.84-46.38,36.05-75.13,42.54-1.41.32-.33,29.82-.32,32.5,0,7.66,0,15.32.1,22.98.01.95.34,9.49.23,9.52,28.75-6.48,52.41-24.7,75.13-42.54.63-.5.24-10.28.23-9.52.08-7.66.1-15.32.1-22.98s0-15.32-.1-22.98c0-1.3-.9-8.99-.23-9.52h-.01Z"/>
  <path class="st10" d="M142.56,136.74h-8.33c-.48,0-.5,65,0,65h8.33c.48,0,.5-65,0-65h0Z"/>
  <path class="st10" d="M197.31,96.27h-2.38c-.48,0-.5,65,0,65h2.38c.48,0,.5-65,0-65h0Z"/>
  <line class="st2" x1="135.34" y1="60.83" x2="135.34" y2="189.67"/>
  <line class="st2" x1="6.5" y1="60.83" x2="135.34" y2="60.83"/>
  <line class="st2" x1="6.5" y1="189.67" x2="135.34" y2="189.67"/>
  <line class="st2" x1="6.5" y1="60.83" x2="6.5" y2="189.67"/>
  <line class="st2" x1="70.92" y1="16.91" x2="70.92" y2="60.83"/>
  <line class="st2" x1="199.76" y1="16.91" x2="70.92" y2="16.91"/>
  <line class="st2" x1="135.34" y1="60.83" x2="194.88" y2="20.33"/>
  <line class="st2" x1="135.34" y1="189.67" x2="199.76" y2="145.75"/>
  <line class="st2" x1="199.76" y1="16.91" x2="199.76" y2="145.75"/>
  <polygon class="st4" points="118.78 37.86 102.31 47.8 85.37 38.68 84.9 19.62 101.37 9.68 118.3 18.8 118.78 37.86"/>
  <path class="st7" d="M147.5,315.1c16.38-5.17,31.95-12.65,46.12-22.38,3.77-2.59,7.44-5.33,10.98-8.22,2.15-1.75,2.16-1.54,2.79-4.16.13-4.71.21-9.43.24-14.14.08-8.09.12-16.18.14-24.27.05-17.84.05-35.68-.14-53.51-.05-4.73.77-11.75-.44-16.58-.63-2.52-2.44-3.37-4.96-3.56-6.82-.53-14.23,4.66-19.9,7.73-7.24,3.92-13.79,8.57-19.75,14.26-9.78,9.34-19.45,21.4-34.06,22l.15,1.96-.04-1.34-.15,108.04c.71-7.19,7.07-11.47,12.78-14.89,7.85-4.7,15.79-9.25,23.69-13.88,16.36-9.58,32.71-19.16,49.07-28.74.91-.53.41-17.84.39-16.11.14-12.96.17-25.93.16-38.89s0-25.93-.16-38.89c-.02-1.94-1.25-15.6-.39-16.11-19.74,11.56-39.48,23.13-59.22,34.69-7.7,4.51-17.72,8.59-23.42,15.73-4.99,6.27-3.2,15.9-3.28,23.19-.33,31.05-.76,62.22.29,93.26l.15,1.96c16.61-.69,26.73-15.93,38.25-25.84,4.05-3.49,39.01-27.61,40.46-14.12v-110c-17.6,14.77-37.83,25.87-59.74,32.79-.65.21-.41,18.33-.39,16.11-.14,12.96-.17,25.93-.16,38.89s0,25.93.16,38.89c.02,1.67.76,15.99.39,16.11h0v.02Z"/>
  <g class="st9">
    <text class="st6" transform="translate(248 123.74) scale(1.09 1)"><tspan x="0" y="0">Weekly Waste</tspan></text>
  </g>
  <polygon class="st5" points="124.41 53.34 116.18 63.28 107.71 54.17 107.47 35.11 115.71 25.16 124.17 34.28 124.41 53.34"/>
  <polygon class="st3" points="54.81 51.09 41.9 51.16 43.45 38.82 57.92 26.41 70.84 26.34 69.28 38.69 54.81 51.09"/>
  <polygon class="st1" points="42.48 25.26 43.68 12.41 55.81 15.17 66.74 30.79 65.55 43.64 53.41 40.88 42.48 25.26"/>
  <polygon class="st4" points="120.09 19.87 111.54 10.2 121.85 3.24 140.72 5.95 149.28 15.62 138.96 22.58 120.09 19.87"/>
  <polygon class="st1" points="152.02 50.41 135.55 60.35 118.61 51.23 118.14 32.17 134.61 22.23 151.54 31.35 152.02 50.41"/>
  <polygon class="st3" points="180.33 29.45 163.86 39.39 146.92 30.27 146.45 11.21 162.92 1.27 179.85 10.39 180.33 29.45"/>
  <polygon class="st5" points="71.55 31.35 55.08 41.29 38.14 32.17 37.67 13.11 54.14 3.17 71.07 12.29 71.55 31.35"/>
  <polygon class="st4" points="115.1 44.08 104.05 59.83 84.87 58.33 76.74 41.08 87.79 25.33 106.96 26.84 115.1 44.08"/>
  <polygon class="st3" points="99.12 29.45 82.65 39.39 65.71 30.27 65.24 11.21 81.71 1.27 98.64 10.39 99.12 29.45"/>
  <polygon class="st3" points="54.61 39.68 48.81 58.02 30.07 62.36 17.13 48.36 22.93 30.02 41.66 25.68 54.61 39.68"/>
  <polygon class="st3" points="128.37 39.13 111.9 49.07 94.96 39.95 94.49 20.89 110.96 10.95 127.89 20.07 128.37 39.13"/>
  <polygon class="st5" points="151.24 42.46 138.43 44.02 138.54 31.58 151.47 17.58 164.29 16.01 164.17 28.45 151.24 42.46"/>
  <polygon class="st3" points="83.77 46.29 87.55 58.63 75.29 60.7 59.23 50.42 55.44 38.07 67.72 36.01 83.77 46.29"/>
  <polygon class="st1" points="100.99 24.77 97.6 37.23 86.12 32.43 78.04 15.16 81.43 2.7 92.91 7.51 100.99 24.77"/>
  <polygon class="st4" points="30.27 31.08 18.08 26.82 23.68 15.71 41.46 8.86 53.66 13.11 48.05 24.23 30.27 31.08"/>
  <polygon class="st1" points="62.26 59.98 45.45 50.64 44.93 31.41 61.23 21.52 78.04 30.86 78.56 50.08 62.26 59.98"/>
</svg>